# Alias OBJ Model File
# Exported from SketchUp, (c) 2000-2012 Trimble Navigation Limited
# File units = meters

mtllib shelf.mtl

g Mesh1 Group_3_1 Model

usemtl FrontColor
v 0.05 0.25 0.05
vt -1.9685 0
vn 0 0 -1
v 0.1 0.25 0.05
vt 0 0
v 0.1 0 0.05
vt 0 9.84252
v 0.05 0 0.05
vt -1.9685 9.84252
f 1/1/1 2/2/1 3/3/1 4/4/1 

vn 1 0 -0
v 0.1 0.25 0.1
v 0.1 0 0.1
f 2/1/2 5/2/2 6/3/2 3/4/2 

vn 0 0 1
v 0.05 0.25 0.1
vt 1.9685 0
v 0.05 0 0.1
vt 1.9685 9.84252
f 5/2/3 7/5/3 8/6/3 6/3/3 

vn -1 0 -0
f 7/2/4 1/5/4 4/6/4 8/3/4 

vn 0 -1 -0
vt 1.9685 1.9685
vt 0 1.9685
f 8/5/5 4/7/5 3/8/5 6/2/5 

g Mesh2 Group_4_1 Model

v 2.9 0.25 0.1
v 2.9 0.25 0.05
v 2.9 0 0.05
vt -1.9685 -9.84252
v 2.9 0 0.1
vt 0 -9.84252
f 9/2/4 10/1/4 11/9/4 12/10/4 

v 2.95 0.25 0.05
v 2.95 0 0.05
f 10/2/1 13/1/1 14/9/1 11/10/1 

v 2.95 0.25 0.1
v 2.95 0 0.1
vt 1.9685 -9.84252
f 13/5/2 15/2/2 16/10/2 14/11/2 

f 15/5/3 9/2/3 12/10/3 16/11/3 

vt -1.9685 1.9685
f 12/2/5 11/8/5 14/12/5 16/1/5 

g Mesh3 Group_5_1 Model

v 2.9 0.25 0.95
v 2.9 0.25 0.9
v 2.9 -1.80478e-016 0.9
v 2.9 -1.80478e-016 0.95
f 17/2/4 18/5/4 19/6/4 20/3/4 

v 2.95 0.25 0.9
v 2.95 -1.80478e-016 0.9
f 18/1/1 21/2/1 22/3/1 19/4/1 

v 2.95 0.25 0.95
v 2.95 -1.80478e-016 0.95
f 21/1/2 23/2/2 24/3/2 22/4/2 

f 23/2/3 17/5/3 20/6/3 24/3/3 

f 20/5/5 19/7/5 22/8/5 24/2/5 

g Mesh4 Group_9_1 Model

v 0.1 0.3 0.05
vt -1.9685 -29.5276
v 0.05 0.3 0.05
vt 0 -29.5276
v 0.05 1.05 0.05
v 0.1 1.05 0.05
f 25/13/1 26/14/1 27/2/1 28/1/1 

v 0.05 0.3 0.1
v 0.05 1.05 0.1
f 26/13/4 29/14/4 30/2/4 27/1/4 

v 0.1 0.3 0.1
vt 1.9685 -29.5276
v 0.1 1.05 0.1
f 29/14/3 31/15/3 32/5/3 30/2/3 

f 31/14/2 25/15/2 28/5/2 32/2/2 

g Mesh5 Group_7_1 Model

v 2.9 0.3 0.1
v 2.95 0.3 0.1
v 2.95 1.05 0.1
v 2.9 1.05 0.1
f 33/14/3 34/15/3 35/5/3 36/2/3 

v 2.95 0.3 0.05
v 2.95 1.05 0.05
f 34/14/2 37/15/2 38/5/2 35/2/2 

v 2.9 0.3 0.05
v 2.9 1.05 0.05
f 37/13/1 39/14/1 40/2/1 38/1/1 

f 39/13/4 33/14/4 36/2/4 40/1/4 

g Mesh6 Group_8_1 Model

v 2.95 0.3 0.95
v 2.95 0.3 0.9
v 2.95 1.05 0.9
v 2.95 1.05 0.95
f 41/14/2 42/15/2 43/5/2 44/2/2 

v 2.9 0.3 0.9
v 2.9 1.05 0.9
f 42/13/1 45/14/1 46/2/1 43/1/1 

v 2.9 0.3 0.95
v 2.9 1.05 0.95
f 45/13/4 47/14/4 48/2/4 46/1/4 

f 47/14/3 41/15/3 44/5/3 48/2/3 

g Mesh7 Group_1_1 Model

v 0.05 0.3 0.9
v 0.05 0.3 0.95
v 0.05 1.05 0.95
vt 0 29.5276
v 0.05 1.05 0.9
vt -1.9685 29.5276
f 49/1/4 50/2/4 51/16/4 52/17/4 

v 0.1 0.3 0.95
v 0.1 1.05 0.95
vt 1.9685 29.5276
f 50/2/3 53/5/3 54/18/3 51/16/3 

v 0.1 0.3 0.9
v 0.1 1.05 0.9
f 53/2/2 55/5/2 56/18/2 54/16/2 

f 55/1/1 49/2/1 52/16/1 56/17/1 

g Mesh8 Group_6_1 Model

v -3.60956e-016 0.3 1
v 0 0.25 1
vt 1.42109e-014 0
v 3 0.25 1
vt 118.11 0
v 3 0.3 1
vt 118.11 1.9685
f 57/8/3 58/19/3 59/20/3 60/21/3 

v -3.60956e-016 0.3 -0
vt -39.3701 1.9685
vn -1 -3.60956e-015 1.80478e-016
v -3.60956e-016 0.25 -0
vt -39.3701 -2.56474e-029
vt 2.56474e-030 -5.12949e-029
f 61/22/6 62/23/6 58/24/6 57/8/6 

v 3 0.3 -0
vt -118.11 1.9685
v 3 0.25 -0
vt -118.11 0
f 61/8/1 63/25/1 64/26/1 62/2/1 

vt 0 39.3701
vn 0 1 -0
vt 1.9685 37.4016
vt 118.11 39.3701
f 61/27/7 26/28/7 63/29/7

v 0.05 0.3 0.95
f 26/28/7 61/27/7 65/7/7

f 57/2/7 65/7/7 61/27/7

f 65/7/7 57/2/7 60/20/7

v 0.1 0.3 0.95
vt 3.93701 1.9685
f 65/7/7 60/20/7 66/30/7

v 0.1 0.3 0.9
vt 3.93701 3.93701
f 66/30/7 60/20/7 67/31/7

vt 3.93701 35.4331
f 67/31/7 60/20/7 31/32/7

vt 3.93701 37.4016
f 31/32/7 60/20/7 25/33/7

v 2.9 0.3 0.95
vt 114.173 1.9685
f 25/33/7 60/20/7 68/34/7

v 2.95 0.3 0.95
vt 116.142 1.9685
f 68/34/7 60/20/7 69/35/7

v 2.95 0.3 0.9
vt 116.142 3.93701
f 69/35/7 60/20/7 70/36/7

v 2.95 0.3 0.1
vt 116.142 35.4331
f 70/36/7 60/20/7 71/37/7

v 2.95 0.3 0.05
vt 116.142 37.4016
f 71/37/7 60/20/7 72/38/7

f 63/29/7 72/38/7 60/20/7

v 2.9 0.3 0.05
vt 114.173 37.4016
f 63/29/7 73/39/7 72/38/7

f 63/29/7 25/33/7 73/39/7

f 63/29/7 26/28/7 25/33/7

f 73/39/7 25/33/7 68/34/7

v 2.9 0.3 0.9
vt 114.173 3.93701
f 73/39/7 68/34/7 74/40/7

v 2.9 0.3 0.1
vt 114.173 35.4331
f 73/39/7 74/40/7 75/41/7

f 70/36/7 75/41/7 74/40/7

f 75/41/7 70/36/7 71/37/7

vt 39.3701 0
vt 39.3701 1.9685
f 64/42/2 63/43/2 60/8/2 59/2/2 

vt -1.42109e-014 0
vt -118.11 39.3701
f 58/44/5 62/27/5 64/45/5 59/26/5 

vt 1.9685 35.4331
f 29/46/7 67/31/7 31/32/7

v 0.05 0.3 0.9
vt 1.9685 3.93701
f 67/31/7 29/46/7 76/47/7

f 26/28/7 76/47/7 29/46/7

f 26/28/7 65/7/7 76/47/7

g Mesh9 Group_10_1 Model

v 2.99525 1.1 -0
vt 117.923 39.3701
v -3.60956e-016 1.1 -0
v -3.60956e-016 1.1 1
v 3 1.1 1
f 77/48/7 78/27/7 79/2/7 80/20/7 

vt -117.923 1.9685
v 2.99525 1.05 -0
vt -117.923 0
v -3.60956e-016 1.05 -0
f 78/8/1 77/49/1 81/50/1 82/2/1 

v 3 1.05 1
vt -0.56095 0
vn 0.999989 0 -0.00474938
vt 38.8096 0
vt 38.8096 1.9685
vt -0.56095 1.9685
f 83/51/8 81/52/8 77/53/8 80/54/8 

vt -117.923 39.3701
v -3.60956e-016 1.05 1
f 81/55/5 83/26/5 84/2/5 82/27/5 

f 80/21/3 79/8/3 84/2/3 83/20/3 

vt -39.3701 0
f 79/8/4 78/22/4 82/56/4 84/2/4 

g Mesh10 Group_14_1 Model

v 0.0452506 1.1 0.1
v 0.0952506 1.1 0.1
v 0.0952506 1.85 0.1
vt 0 -1.42109e-014
v 0.0452506 1.85 0.1
vt 1.9685 -1.42109e-014
f 85/18/3 86/16/3 87/57/3 88/58/3 

v 0.0952506 1.1 0.05
v 0.0952506 1.85 0.05
vt -1.9685 -1.42109e-014
f 86/16/2 89/17/2 90/59/2 87/57/2 

v 0.0452506 1.1 0.05
v 0.0452506 1.85 0.05
f 89/16/1 91/17/1 92/59/1 90/57/1 

f 91/18/4 85/16/4 88/57/4 92/58/4 

g Mesh11 Group_11_1 Model

v 2.89525 1.1 0.05
v 2.89525 1.1 0.1
v 2.89525 1.85 0.1
v 2.89525 1.85 0.05
f 93/18/4 94/16/4 95/2/4 96/5/4 

v 2.94525 1.1 0.1
v 2.94525 1.85 0.1
f 94/18/3 97/16/3 98/2/3 95/5/3 

v 2.94525 1.1 0.05
v 2.94525 1.85 0.05
f 97/16/2 99/17/2 100/1/2 98/2/2 

f 99/16/1 93/17/1 96/1/1 100/2/1 

g Mesh12 Group_12_1 Model

v 2.94525 1.1 0.95
v 2.94525 1.1 0.9
v 2.94525 1.85 0.9
v 2.94525 1.85 0.95
f 101/16/2 102/17/2 103/1/2 104/2/2 

v 2.89525 1.1 0.9
v 2.89525 1.85 0.9
f 102/16/1 105/17/1 106/1/1 103/2/1 

v 2.89525 1.1 0.95
v 2.89525 1.85 0.95
f 105/18/4 107/16/4 108/2/4 106/5/4 

f 107/18/3 101/16/3 104/2/3 108/5/3 

g Mesh13 Group_13_1 Model

v 0.0952506 1.1 0.9
v 0.0452506 1.1 0.9
v 0.0452506 1.85 0.9
v 0.0952506 1.85 0.9
f 109/16/1 110/17/1 111/59/1 112/57/1 

v 0.0452506 1.1 0.95
v 0.0452506 1.85 0.95
f 110/18/4 113/16/4 114/57/4 111/58/4 

v 0.0952506 1.1 0.95
v 0.0952506 1.85 0.95
f 113/18/3 115/16/3 116/57/3 114/58/3 

f 115/16/2 109/17/2 112/59/2 116/57/2 

g Mesh14 Group_15_1 Model

v 2.99525 1.85 -0
v 2.99525 1.9 -0
v 2.99525 1.9 1
v 2.99525 1.85 1
f 117/42/2 118/43/2 119/8/2 120/2/2 

v -0.00474943 1.85 -0
v -0.00474943 1.9 -0
f 121/2/1 122/8/1 118/25/1 117/26/1 

v -0.00474943 1.85 1
v -0.00474943 1.9 1
f 123/2/4 124/8/4 122/22/4 121/56/4 

f 119/21/3 124/8/3 123/2/3 120/20/3 

v 0.0452506 1.9 0.95
f 125/7/7 124/2/7 119/20/7

f 124/2/7 125/7/7 122/27/7

v 0.0452506 1.9 0.05
f 126/28/7 122/27/7 125/7/7

f 122/27/7 126/28/7 118/29/7

v 0.0952506 1.9 0.05
f 118/29/7 126/28/7 127/33/7

v 0.0952506 1.9 0.9
f 118/29/7 127/33/7 128/31/7

v 0.0952506 1.9 0.1
f 129/32/7 128/31/7 127/33/7

v 0.0452506 1.9 0.1
f 130/46/7 128/31/7 129/32/7

v 0.0452506 1.9 0.9
f 128/31/7 130/46/7 131/47/7

f 126/28/7 131/47/7 130/46/7

f 126/28/7 125/7/7 131/47/7

v 2.89525 1.9 0.05
f 118/29/7 128/31/7 132/39/7

v 2.89525 1.9 0.95
f 132/39/7 128/31/7 133/34/7

f 128/31/7 119/20/7 133/34/7

v 0.0952506 1.9 0.95
f 134/30/7 119/20/7 128/31/7

f 125/7/7 119/20/7 134/30/7

v 2.94525 1.9 0.95
f 133/34/7 119/20/7 135/35/7

v 2.94525 1.9 0.9
f 135/35/7 119/20/7 136/36/7

v 2.94525 1.9 0.1
f 136/36/7 119/20/7 137/37/7

v 2.94525 1.9 0.05
f 137/37/7 119/20/7 138/38/7

f 118/29/7 138/38/7 119/20/7

f 118/29/7 132/39/7 138/38/7

v 2.89525 1.9 0.1
f 139/41/7 136/36/7 137/37/7

v 2.89525 1.9 0.9
f 136/36/7 139/41/7 140/40/7

f 132/39/7 140/40/7 139/41/7

f 132/39/7 133/34/7 140/40/7

f 120/26/5 123/2/5 121/27/5 117/45/5 

g Mesh15 Group_17_1 Model

v 0.0452506 2.025 0.1
vt 0 4.92126
v 0.0452506 2.025 0.05
vt -1.9685 4.92126
f 126/1/4 130/2/4 141/60/4 142/61/4 

v 0.0952506 2.025 0.1
vt 1.9685 4.92126
f 130/2/3 129/5/3 143/62/3 141/60/3 

v 0.0952506 2.025 0.05
f 129/2/2 127/5/2 144/62/2 143/60/2 

f 127/1/1 126/2/1 142/60/1 144/61/1 

f 144/7/7 142/8/7 141/2/7 143/5/7 

g Mesh16 Group_18_1 Model

v 2.89525 2.025 0.05
v 2.94525 2.025 0.05
f 138/1/1 132/2/1 145/60/1 146/61/1 

v 2.89525 2.025 0.1
f 132/1/4 139/2/4 147/60/4 145/61/4 

v 2.94525 2.025 0.1
f 139/2/3 137/5/3 148/62/3 147/60/3 

f 137/2/2 138/5/2 146/62/2 148/60/2 

f 148/5/7 146/7/7 145/8/7 147/2/7 

g Mesh17 Group_19_1 Model

v 2.89525 1.9 0.9
v 2.89525 1.9 0.95
v 2.89525 2.025 0.95
v 2.89525 2.025 0.9
f 149/1/4 150/2/4 151/60/4 152/61/4 

v 2.94525 1.9 0.95
v 2.94525 2.025 0.95
f 150/2/3 153/5/3 154/62/3 151/60/3 

v 2.94525 1.9 0.9
v 2.94525 2.025 0.9
f 153/2/2 155/5/2 156/62/2 154/60/2 

f 155/1/1 149/2/1 152/60/1 156/61/1 

f 156/7/7 152/8/7 151/2/7 154/5/7 

g Mesh18 Group_16_1 Model

v 0.0452506 1.9 0.95
v 0.0952506 1.9 0.95
v 0.0952506 2.025 0.95
v 0.0452506 2.025 0.95
f 157/2/3 158/5/3 159/62/3 160/60/3 

v 0.0952506 1.9 0.9
v 0.0952506 2.025 0.9
f 158/2/2 161/5/2 162/62/2 159/60/2 

v 0.0452506 1.9 0.9
v 0.0452506 2.025 0.9
f 161/1/1 163/2/1 164/60/1 162/61/1 

f 163/1/4 157/2/4 160/60/4 164/61/4 

f 159/5/7 162/7/7 164/8/7 160/2/7 

g Mesh19 Group_20_1 Model

v 0.05 0.25 0.95
v 0.05 0.25 0.9
v 0.05 0 0.9
v 0.05 0 0.95
f 165/3/4 166/4/4 167/1/4 168/2/4 

vn 0 -7.21911e-016 -1
v 0.1 0.25 0.9
v 0.1 0 0.9
vt -1.9685 1.42109e-015
vt 0 1.42109e-015
f 166/3/9 169/4/9 170/63/9 167/64/9 

v 0.1 0.25 0.95
v 0.1 0 0.95
f 169/6/2 171/3/2 172/2/2 170/5/2 

f 171/6/3 165/3/3 168/2/3 172/5/3 

f 168/2/5 167/8/5 170/12/5 172/1/5 

